<svg xmlns="http://www.w3.org/2000/svg" width="25" height="25" viewBox="0 0 25 25" fill="none">
  <path d="M12.5002 15.599C12.3613 15.599 12.2266 15.5729 12.096 15.5208C11.9654 15.4688 11.8571 15.3993 11.771 15.3125L6.97933 10.5208C6.78836 10.3299 6.69287 10.0868 6.69287 9.79167C6.69287 9.49653 6.78836 9.25348 6.97933 9.0625C7.1703 8.87153 7.41336 8.77605 7.7085 8.77605C8.00363 8.77605 8.24669 8.87153 8.43766 9.0625L12.5002 13.125L16.5627 9.0625C16.7536 8.87153 16.9967 8.77605 17.2918 8.77605C17.587 8.77605 17.83 8.87153 18.021 9.0625C18.212 9.25348 18.3075 9.49653 18.3075 9.79167C18.3075 10.0868 18.212 10.3299 18.021 10.5208L13.2293 15.3125C13.1252 15.4167 13.0123 15.4906 12.8908 15.5344C12.7693 15.5781 12.6391 15.5997 12.5002 15.599Z" fill=""/>
</svg>