<svg width="23" height="23" viewBox="0 0 23 23" fill="none" xmlns="http://www.w3.org/2000/svg">
<circle cx="11.5" cy="11.5" r="11" fill="#F0F3FF" stroke="white"/>
<path d="M15.4542 9.83439L13.1521 7.55939L13.9104 6.80105C14.1181 6.59341 14.3732 6.48959 14.6758 6.48959C14.9784 6.48959 15.2333 6.59341 15.4406 6.80105L16.199 7.55939C16.4066 7.76702 16.5149 8.01764 16.524 8.31122C16.533 8.6048 16.4337 8.85523 16.226 9.06251L15.4542 9.83439ZM7.16667 16.375C7.0132 16.375 6.88446 16.323 6.78046 16.219C6.67646 16.115 6.62464 15.9865 6.625 15.8333V14.3031C6.625 14.2309 6.63854 14.1609 6.66563 14.093C6.69271 14.0251 6.73334 13.9642 6.7875 13.9104L12.3667 8.33126L14.6688 10.6333L9.08959 16.2125C9.03542 16.2667 8.97457 16.3073 8.90704 16.3344C8.83952 16.3615 8.76946 16.375 8.69688 16.375H7.16667Z" fill="#292929"/>
</svg>
