<svg xmlns="http://www.w3.org/2000/svg" width="28" height="28" viewBox="0 0 28 28" fill="none">
  <path d="M6.99984 2.33334H17.4998C18.1187 2.33334 18.7122 2.57918 19.1498 3.01676C19.5873 3.45435 19.8332 4.04784 19.8332 4.66668V5.83334C19.8332 6.14276 19.7103 6.43951 19.4915 6.6583C19.2727 6.87709 18.9759 7.00001 18.6665 7.00001C18.3571 7.00001 18.0603 6.87709 17.8415 6.6583C17.6228 6.43951 17.4998 6.14276 17.4998 5.83334V4.66668H6.99984V23.3333H17.4998V22.1667C17.4998 21.8573 17.6228 21.5605 17.8415 21.3417C18.0603 21.1229 18.3571 21 18.6665 21C18.9759 21 19.2727 21.1229 19.4915 21.3417C19.7103 21.5605 19.8332 21.8573 19.8332 22.1667V23.3333C19.8332 23.9522 19.5873 24.5457 19.1498 24.9833C18.7122 25.4208 18.1187 25.6667 17.4998 25.6667H6.99984C6.381 25.6667 5.78751 25.4208 5.34992 24.9833C4.91234 24.5457 4.6665 23.9522 4.6665 23.3333V4.66668C4.6665 4.04784 4.91234 3.45435 5.34992 3.01676C5.78751 2.57918 6.381 2.33334 6.99984 2.33334Z" fill="#0001AE"/>
  <path d="M19.5942 19.0108C20.0492 19.4658 20.7842 19.4658 21.2392 19.0108L25.4252 14.8248C25.6439 14.606 25.7668 14.3094 25.7668 14C25.7668 13.6906 25.6439 13.3939 25.4252 13.1752L21.2392 8.98916C21.0174 8.78872 20.7271 8.68115 20.4283 8.6887C20.1294 8.69624 19.8449 8.81832 19.6335 9.02969C19.4222 9.24107 19.3001 9.52558 19.2925 9.82441C19.285 10.1232 19.3926 10.4136 19.593 10.6353L21.7817 12.8333H11.6667C11.3572 12.8333 11.0605 12.9562 10.8417 13.175C10.6229 13.3938 10.5 13.6906 10.5 14C10.5 14.3094 10.6229 14.6062 10.8417 14.825C11.0605 15.0437 11.3572 15.1667 11.6667 15.1667H21.7817L19.593 17.3647C19.3752 17.5833 19.253 17.8794 19.2533 18.188C19.2535 18.4966 19.3761 18.7925 19.5942 19.0108Z" fill="#0001AE"/>
</svg>