<svg width="24" height="24" viewBox="0 0 24 24" fill="none" xmlns="http://www.w3.org/2000/svg">
<path d="M14.25 1.5C15.2295 1.5 16.0635 2.12625 16.3725 3H17.625C18.3212 3 18.9889 3.27656 19.4812 3.76885C19.9734 4.26113 20.25 4.92881 20.25 5.625V10.5315C19.7057 10.6086 19.1898 10.8219 18.75 11.1518V5.625C18.75 5.32663 18.6315 5.04048 18.4205 4.8295C18.2095 4.61853 17.9234 4.5 17.625 4.5H16.3725C16.2172 4.93881 15.9298 5.31868 15.5496 5.58732C15.1695 5.85596 14.7155 6.00013 14.25 6H9.75C9.28454 6.00013 8.83048 5.85596 8.45036 5.58732C8.07024 5.31868 7.78276 4.93881 7.6275 4.5H6.375C6.07663 4.5 5.79048 4.61853 5.5795 4.8295C5.36853 5.04048 5.25 5.32663 5.25 5.625V19.875C5.25 20.1734 5.36853 20.4595 5.5795 20.6705C5.79048 20.8815 6.07663 21 6.375 21H10.728L10.5585 21.6532C10.4857 21.9299 10.4775 22.2196 10.5345 22.5H6.375C5.67881 22.5 5.01113 22.2234 4.51884 21.7312C4.02656 21.2389 3.75 20.5712 3.75 19.875V5.625C3.75 4.92881 4.02656 4.26113 4.51884 3.76885C5.01113 3.27656 5.67881 3 6.375 3H7.6275C7.78276 2.56119 8.07024 2.18132 8.45036 1.91268C8.83048 1.64404 9.28454 1.49987 9.75 1.5H14.25ZM9.75 3C9.55109 3 9.36032 3.07902 9.21967 3.21967C9.07902 3.36032 9 3.55109 9 3.75C9 3.94891 9.07902 4.13968 9.21967 4.28033C9.36032 4.42098 9.55109 4.5 9.75 4.5H14.25C14.4489 4.5 14.6397 4.42098 14.7803 4.28033C14.921 4.13968 15 3.94891 15 3.75C15 3.55109 14.921 3.36032 14.7803 3.21967C14.6397 3.07902 14.4489 3 14.25 3H9.75ZM13.395 16.5L11.9565 17.9505C11.9403 17.9668 11.9243 17.9833 11.9085 18H8.25C8.05109 18 7.86032 17.921 7.71967 17.7803C7.57902 17.6397 7.5 17.4489 7.5 17.25C7.5 17.0511 7.57902 16.8603 7.71967 16.7197C7.86032 16.579 8.05109 16.5 8.25 16.5H13.395ZM7.5 9.75C7.5 9.55109 7.57902 9.36032 7.71967 9.21967C7.86032 9.07902 8.05109 9 8.25 9H15.75C15.9489 9 16.1397 9.07902 16.2803 9.21967C16.421 9.36032 16.5 9.55109 16.5 9.75C16.5 9.94891 16.421 10.1397 16.2803 10.2803C16.1397 10.421 15.9489 10.5 15.75 10.5H8.25C8.05109 10.5 7.86032 10.421 7.71967 10.2803C7.57902 10.1397 7.5 9.94891 7.5 9.75ZM8.25 12.75C8.05109 12.75 7.86032 12.829 7.71967 12.9697C7.57902 13.1103 7.5 13.3011 7.5 13.5C7.5 13.6989 7.57902 13.8897 7.71967 14.0303C7.86032 14.171 8.05109 14.25 8.25 14.25H12C12.1989 14.25 12.3897 14.171 12.5303 14.0303C12.671 13.8897 12.75 13.6989 12.75 13.5C12.75 13.3011 12.671 13.1103 12.5303 12.9697C12.3897 12.829 12.1989 12.75 12 12.75H8.25ZM22.239 15.3187L15.7792 21.726C15.5152 21.9878 15.1867 22.1745 14.8267 22.2668L12.5618 22.8503C12.4353 22.8829 12.3025 22.882 12.1765 22.8476C12.0504 22.8132 11.9356 22.7464 11.8433 22.654C11.751 22.5616 11.6845 22.4466 11.6503 22.3206C11.6161 22.1945 11.6154 22.0617 11.6483 21.9352L12.2407 19.647C12.3292 19.305 12.507 18.993 12.756 18.7425L19.1835 12.2625C19.3842 12.0619 19.6224 11.9027 19.8846 11.7942C20.1468 11.6856 20.4277 11.6298 20.7115 11.6298C20.9953 11.6298 21.2763 11.6858 21.5384 11.7944C21.8006 11.903 22.0387 12.0622 22.2394 12.2629C22.44 12.4636 22.5991 12.7018 22.7077 12.964C22.8163 13.2261 22.8721 13.5071 22.8721 13.7909C22.872 14.0747 22.8161 14.3556 22.7075 14.6178C22.5989 14.8799 22.4397 15.1181 22.239 15.3187Z" fill=""/>
</svg>
